<?xml version="1.0" encoding="UTF-8"?>
<svg xmlns="http://www.w3.org/2000/svg" xmlns:xlink="http://www.w3.org/1999/xlink" viewBox="0 0 40 40" width="40px" height="40px">
<g id="surface1145438">
<path style=" stroke:none;fill-rule:nonzero;fill:rgb(16.078432%,71.372551%,96.470588%);fill-opacity:1;" d="M 36.667969 9.257812 L 36.667969 30.742188 C 36.667969 31.800781 36.007812 32.742188 35.015625 33.089844 L 27.667969 36.542969 L 28.332031 27.5 L 28.332031 12.5 L 27.667969 3.457031 L 35.015625 6.910156 C 36.007812 7.257812 36.667969 8.199219 36.667969 9.257812 Z M 36.667969 9.257812 "/>
<path style=" stroke:none;fill-rule:nonzero;fill:rgb(0.784314%,46.666667%,74.117649%);fill-opacity:1;" d="M 7.5 28.246094 L 28.332031 12.5 L 28.332031 4.460938 C 28.332031 3.460938 27.097656 2.996094 26.4375 3.746094 L 3.882812 24.367188 C 3.132812 25.058594 3.175781 26.253906 3.972656 26.890625 C 3.972656 26.890625 5.074219 27.917969 5.472656 28.203125 C 6.085938 28.640625 6.890625 28.691406 7.5 28.246094 Z M 7.5 28.246094 "/>
<path style=" stroke:none;fill-rule:nonzero;fill:rgb(0.784314%,53.333336%,81.960785%);fill-opacity:1;" d="M 7.5 11.753906 L 28.332031 27.5 L 28.332031 35.539062 C 28.332031 36.539062 27.097656 37.003906 26.4375 36.253906 L 3.882812 15.632812 C 3.132812 14.941406 3.175781 13.746094 3.972656 13.109375 C 3.972656 13.109375 5.074219 12.082031 5.472656 11.796875 C 6.085938 11.359375 6.890625 11.308594 7.5 11.753906 Z M 7.5 11.753906 "/>
</g>
</svg>
